<svg xmlns="http://www.w3.org/2000/svg" xmlns:xlink="http://www.w3.org/1999/xlink" width="966" zoomAndPan="magnify" viewBox="0 0 724.5 739.499982" height="986" preserveAspectRatio="xMidYMid meet" version="1.0"><defs><g/><clipPath id="14197c8966"><path d="M 0 0.00390625 L 673 0.00390625 L 673 667 L 0 667 Z M 0 0.00390625 " clip-rule="nonzero"/></clipPath><clipPath id="ada9afaf44"><path d="M -156.789062 509.144531 L 514.574219 -162.21875 L 672.019531 -4.769531 L 0.660156 666.589844 Z M -156.789062 509.144531 " clip-rule="nonzero"/></clipPath><clipPath id="e56be696d3"><path d="M 14 434 L 72 434 L 72 492 L 14 492 Z M 14 434 " clip-rule="nonzero"/></clipPath><clipPath id="28c134ab35"><path d="M -156.789062 509.144531 L 514.675781 -162.320312 L 672.074219 -4.921875 L 0.609375 666.542969 Z M -156.789062 509.144531 " clip-rule="nonzero"/></clipPath><clipPath id="5cde331339"><path d="M 47 414 L 103 414 L 103 470 L 47 470 Z M 47 414 " clip-rule="nonzero"/></clipPath><clipPath id="8137dd0770"><path d="M -156.789062 509.144531 L 514.675781 -162.320312 L 672.074219 -4.921875 L 0.609375 666.542969 Z M -156.789062 509.144531 " clip-rule="nonzero"/></clipPath><clipPath id="7ce9b37ace"><path d="M 64 379 L 128 379 L 128 443 L 64 443 Z M 64 379 " clip-rule="nonzero"/></clipPath><clipPath id="bb3da8b802"><path d="M -156.789062 509.144531 L 514.675781 -162.320312 L 672.074219 -4.921875 L 0.609375 666.542969 Z M -156.789062 509.144531 " clip-rule="nonzero"/></clipPath><clipPath id="1e56c4d554"><path d="M 129 419 L 130 419 L 130 420 L 129 420 Z M 129 419 " clip-rule="nonzero"/></clipPath><clipPath id="4affc15ef8"><path d="M -156.789062 509.144531 L 514.675781 -162.320312 L 672.074219 -4.921875 L 0.609375 666.542969 Z M -156.789062 509.144531 " clip-rule="nonzero"/></clipPath><clipPath id="b1331e7cf1"><path d="M 116 339 L 193 339 L 193 416 L 116 416 Z M 116 339 " clip-rule="nonzero"/></clipPath><clipPath id="e923bb60fb"><path d="M -156.789062 509.144531 L 514.675781 -162.320312 L 672.074219 -4.921875 L 0.609375 666.542969 Z M -156.789062 509.144531 " clip-rule="nonzero"/></clipPath><clipPath id="d94636f8f1"><path d="M 136 310 L 191 310 L 191 365 L 136 365 Z M 136 310 " clip-rule="nonzero"/></clipPath><clipPath id="3103892d85"><path d="M -156.789062 509.144531 L 514.675781 -162.320312 L 672.074219 -4.921875 L 0.609375 666.542969 Z M -156.789062 509.144531 " clip-rule="nonzero"/></clipPath><clipPath id="1f5c6e125f"><path d="M 165 292 L 225 292 L 225 352 L 165 352 Z M 165 292 " clip-rule="nonzero"/></clipPath><clipPath id="674dc25eb7"><path d="M -156.789062 509.144531 L 514.675781 -162.320312 L 672.074219 -4.921875 L 0.609375 666.542969 Z M -156.789062 509.144531 " clip-rule="nonzero"/></clipPath><clipPath id="97bcb614ce"><path d="M 198 260 L 257 260 L 257 319 L 198 319 Z M 198 260 " clip-rule="nonzero"/></clipPath><clipPath id="992c2bd057"><path d="M -156.789062 509.144531 L 514.675781 -162.320312 L 672.074219 -4.921875 L 0.609375 666.542969 Z M -156.789062 509.144531 " clip-rule="nonzero"/></clipPath><clipPath id="d96aa1be7c"><path d="M 228 227 L 290 227 L 290 289 L 228 289 Z M 228 227 " clip-rule="nonzero"/></clipPath><clipPath id="b68bc1d1a5"><path d="M -156.789062 509.144531 L 514.675781 -162.320312 L 672.074219 -4.921875 L 0.609375 666.542969 Z M -156.789062 509.144531 " clip-rule="nonzero"/></clipPath><clipPath id="3ed79b0253"><path d="M 291 257 L 292 257 L 292 258 L 291 258 Z M 291 257 " clip-rule="nonzero"/></clipPath><clipPath id="323730272a"><path d="M -156.789062 509.144531 L 514.675781 -162.320312 L 672.074219 -4.921875 L 0.609375 666.542969 Z M -156.789062 509.144531 " clip-rule="nonzero"/></clipPath><clipPath id="c2ee2a3259"><path d="M 275 163 L 354 163 L 354 242 L 275 242 Z M 275 163 " clip-rule="nonzero"/></clipPath><clipPath id="fbd86dcc00"><path d="M -156.789062 509.144531 L 514.675781 -162.320312 L 672.074219 -4.921875 L 0.609375 666.542969 Z M -156.789062 509.144531 " clip-rule="nonzero"/></clipPath><clipPath id="6ef990ac7b"><path d="M 311 135 L 367 135 L 367 190 L 311 190 Z M 311 135 " clip-rule="nonzero"/></clipPath><clipPath id="66735006a4"><path d="M -156.789062 509.144531 L 514.675781 -162.320312 L 672.074219 -4.921875 L 0.609375 666.542969 Z M -156.789062 509.144531 " clip-rule="nonzero"/></clipPath><clipPath id="159d3bf69d"><path d="M 343 114 L 402 114 L 402 174 L 343 174 Z M 343 114 " clip-rule="nonzero"/></clipPath><clipPath id="c4dbd0fe03"><path d="M -156.789062 509.144531 L 514.675781 -162.320312 L 672.074219 -4.921875 L 0.609375 666.542969 Z M -156.789062 509.144531 " clip-rule="nonzero"/></clipPath><clipPath id="a86ffd39f8"><path d="M 378 78 L 438 78 L 438 138 L 378 138 Z M 378 78 " clip-rule="nonzero"/></clipPath><clipPath id="ede7702637"><path d="M -156.789062 509.144531 L 514.675781 -162.320312 L 672.074219 -4.921875 L 0.609375 666.542969 Z M -156.789062 509.144531 " clip-rule="nonzero"/></clipPath><clipPath id="3fe9b7d112"><path d="M 412 42 L 475 42 L 475 105 L 412 105 Z M 412 42 " clip-rule="nonzero"/></clipPath><clipPath id="6c05a6cf1d"><path d="M -156.789062 509.144531 L 514.675781 -162.320312 L 672.074219 -4.921875 L 0.609375 666.542969 Z M -156.789062 509.144531 " clip-rule="nonzero"/></clipPath><clipPath id="ae17ba28e2"><path d="M 448 15 L 501 15 L 501 68 L 448 68 Z M 448 15 " clip-rule="nonzero"/></clipPath><clipPath id="d5c4d0f812"><path d="M -156.789062 509.144531 L 514.675781 -162.320312 L 672.074219 -4.921875 L 0.609375 666.542969 Z M -156.789062 509.144531 " clip-rule="nonzero"/></clipPath></defs><g clip-path="url(#14197c8966)"><g clip-path="url(#ada9afaf44)"><path fill="#fbbec3" d="M -156.789062 509.144531 L 514.824219 -162.46875 L 672.273438 -5.023438 L 0.660156 666.589844 Z M -156.789062 509.144531 " fill-opacity="1" fill-rule="nonzero"/></g></g><g clip-path="url(#e56be696d3)"><g clip-path="url(#28c134ab35)"><g fill="#ffffff" fill-opacity="1"><g transform="translate(52.836552, 495.604547)"><g><path d="M -28.203125 -56.390625 L -23.90625 -60.6875 L 18.390625 -18.390625 L 12.609375 -12.609375 L -23.5 -48.71875 L -27.59375 -37.65625 L -33.828125 -41.203125 Z M -28.203125 -56.390625 "/></g></g></g></g></g><g clip-path="url(#5cde331339)"><g clip-path="url(#8137dd0770)"><g fill="#ffffff" fill-opacity="1"><g transform="translate(77.269439, 471.17166)"><g><path d="M -3.359375 -47.921875 C -5.546875 -47.171875 -7.375 -46.320312 -8.84375 -45.375 C -10.320312 -44.4375 -11.664062 -43.363281 -12.875 -42.15625 C -15.03125 -40 -16.234375 -38.015625 -16.484375 -36.203125 C -16.734375 -34.390625 -16.207031 -32.832031 -14.90625 -31.53125 C -13.976562 -30.601562 -12.804688 -30.148438 -11.390625 -30.171875 C -9.972656 -30.191406 -7.785156 -31.015625 -4.828125 -32.640625 L -2.21875 -34.03125 C 1.675781 -36.132812 5.097656 -37.25 8.046875 -37.375 C 11.003906 -37.507812 13.691406 -36.367188 16.109375 -33.953125 C 18.972656 -31.085938 20.210938 -27.71875 19.828125 -23.84375 C 19.453125 -19.976562 17.363281 -16.144531 13.5625 -12.34375 C 11.550781 -10.332031 9.4375 -8.578125 7.21875 -7.078125 C 5 -5.578125 2.90625 -4.476562 0.9375 -3.78125 L -2.296875 -9.796875 C -0.367188 -10.472656 1.546875 -11.378906 3.453125 -12.515625 C 5.367188 -13.660156 7.101562 -15.007812 8.65625 -16.5625 C 10.675781 -18.582031 11.921875 -20.546875 12.390625 -22.453125 C 12.859375 -24.359375 12.265625 -26.140625 10.609375 -27.796875 C 9.179688 -29.222656 7.648438 -29.722656 6.015625 -29.296875 C 4.378906 -28.867188 2.304688 -27.984375 -0.203125 -26.640625 L -2.953125 -25.234375 C -6.804688 -23.273438 -10.140625 -22.289062 -12.953125 -22.28125 C -15.773438 -22.28125 -18.304688 -23.398438 -20.546875 -25.640625 C -21.890625 -26.984375 -22.828125 -28.503906 -23.359375 -30.203125 C -23.890625 -31.898438 -24.035156 -33.632812 -23.796875 -35.40625 C -23.554688 -37.175781 -22.953125 -38.96875 -21.984375 -40.78125 C -21.015625 -42.59375 -19.703125 -44.328125 -18.046875 -45.984375 C -16.484375 -47.546875 -14.71875 -49.019531 -12.75 -50.40625 C -10.78125 -51.789062 -8.703125 -52.910156 -6.515625 -53.765625 Z M -3.359375 -47.921875 "/></g></g></g></g></g><g clip-path="url(#7ce9b37ace)"><g clip-path="url(#bb3da8b802)"><g fill="#ffffff" fill-opacity="1"><g transform="translate(104.588632, 443.852467)"><g><path d="M -5.984375 -48.265625 L -15.25 -39 L 3.078125 -20.671875 C 4.648438 -19.097656 6.097656 -18.4375 7.421875 -18.6875 C 8.742188 -18.9375 10.03125 -19.6875 11.28125 -20.9375 C 12.175781 -21.832031 13.054688 -22.914062 13.921875 -24.1875 C 14.796875 -25.46875 15.503906 -26.648438 16.046875 -27.734375 L 21.484375 -24.171875 C 20.941406 -22.921875 20.113281 -21.46875 19 -19.8125 C 17.882812 -18.15625 16.5625 -16.5625 15.03125 -15.03125 C 11.90625 -11.90625 8.941406 -10.304688 6.140625 -10.234375 C 3.347656 -10.171875 0.65625 -11.4375 -1.9375 -14.03125 L -21.078125 -33.171875 L -25.78125 -28.46875 L -30.203125 -32.890625 L -25.5 -37.59375 L -35.578125 -47.671875 L -29.75 -53.5 L -19.671875 -43.421875 L -10.40625 -52.6875 Z M -5.984375 -48.265625 "/></g></g></g></g></g><g clip-path="url(#1e56c4d554)"><g clip-path="url(#4affc15ef8)"><g fill="#ffffff" fill-opacity="1"><g transform="translate(129.021519, 419.41958)"><g/></g></g></g></g><g clip-path="url(#b1331e7cf1)"><g clip-path="url(#e923bb60fb)"><g fill="#ffffff" fill-opacity="1"><g transform="translate(143.922892, 404.518207)"><g><path d="M 18.265625 -17.046875 C 16.835938 -15.617188 15.257812 -14.445312 13.53125 -13.53125 C 11.800781 -12.613281 10.128906 -12.015625 8.515625 -11.734375 L 25.5625 5.3125 L 19.734375 11.140625 L -27.71875 -36.3125 L -22.828125 -41.203125 L -17.875 -38 C -17.78125 -40.320312 -17.367188 -42.644531 -16.640625 -44.96875 C -15.921875 -47.300781 -14.535156 -49.492188 -12.484375 -51.546875 C -8.273438 -55.753906 -3.625 -57.722656 1.46875 -57.453125 C 6.570312 -57.191406 11.628906 -54.554688 16.640625 -49.546875 C 19.597656 -46.585938 21.71875 -43.597656 23 -40.578125 C 24.28125 -37.554688 24.882812 -34.628906 24.8125 -31.796875 C 24.738281 -28.960938 24.109375 -26.273438 22.921875 -23.734375 C 21.734375 -21.191406 20.179688 -18.960938 18.265625 -17.046875 Z M -8.921875 -45.453125 C -10.804688 -43.566406 -11.984375 -41.472656 -12.453125 -39.171875 C -12.921875 -36.867188 -13.070312 -34.863281 -12.90625 -33.15625 L 3.953125 -16.296875 C 5.742188 -16.566406 7.398438 -17.101562 8.921875 -17.90625 C 10.453125 -18.71875 11.800781 -19.707031 12.96875 -20.875 C 14.175781 -22.082031 15.164062 -23.5 15.9375 -25.125 C 16.71875 -26.757812 17.085938 -28.539062 17.046875 -30.46875 C 17.003906 -32.394531 16.488281 -34.429688 15.5 -36.578125 C 14.507812 -38.722656 12.875 -40.9375 10.59375 -43.21875 C 7.238281 -46.570312 3.882812 -48.519531 0.53125 -49.0625 C -2.820312 -49.601562 -5.972656 -48.398438 -8.921875 -45.453125 Z M -8.921875 -45.453125 "/></g></g></g></g></g><g clip-path="url(#d94636f8f1)"><g clip-path="url(#3103892d85)"><g fill="#ffffff" fill-opacity="1"><g transform="translate(179.56537, 368.875729)"><g><path d="M 4.828125 -4.828125 L -42.828125 -52.484375 L -37.046875 -58.265625 L 10.609375 -10.609375 Z M 4.828125 -4.828125 "/></g></g></g></g></g><g clip-path="url(#1f5c6e125f)"><g clip-path="url(#674dc25eb7)"><g fill="#ffffff" fill-opacity="1"><g transform="translate(195.003734, 353.437364)"><g><path d="M -23.828125 -33.640625 C -23.296875 -35.234375 -22.769531 -36.710938 -22.25 -38.078125 C -21.738281 -39.453125 -21.144531 -40.742188 -20.46875 -41.953125 C -19.800781 -43.171875 -19.039062 -44.335938 -18.1875 -45.453125 C -17.332031 -46.566406 -16.328125 -47.703125 -15.171875 -48.859375 C -13.421875 -50.609375 -11.628906 -52.019531 -9.796875 -53.09375 C -7.960938 -54.164062 -6.070312 -54.78125 -4.125 -54.9375 C -2.175781 -55.09375 -0.1875 -54.734375 1.84375 -53.859375 C 3.882812 -52.992188 6.003906 -51.460938 8.203125 -49.265625 L 28.734375 -28.734375 L 23.828125 -23.828125 L 19.609375 -26.578125 L 19.46875 -26.4375 C 19.5625 -23.570312 19.09375 -21 18.0625 -18.71875 C 17.03125 -16.4375 15.507812 -14.289062 13.5 -12.28125 C 11.976562 -10.757812 10.363281 -9.570312 8.65625 -8.71875 C 6.957031 -7.875 5.242188 -7.367188 3.515625 -7.203125 C 1.796875 -7.046875 0.125 -7.269531 -1.5 -7.875 C -3.132812 -8.488281 -4.648438 -9.492188 -6.046875 -10.890625 C -9.347656 -14.191406 -10.550781 -18.015625 -9.65625 -22.359375 C -8.757812 -26.703125 -6.164062 -31.019531 -1.875 -35.3125 L 4.171875 -41.359375 L 1.484375 -44.046875 C -0.796875 -46.328125 -2.929688 -47.296875 -4.921875 -46.953125 C -6.921875 -46.617188 -8.90625 -45.46875 -10.875 -43.5 C -12.039062 -42.332031 -13.179688 -40.804688 -14.296875 -38.921875 C -15.421875 -37.046875 -16.40625 -34.613281 -17.25 -31.625 Z M 8.265625 -37.390625 L 3.4375 -32.28125 C 0.164062 -28.84375 -1.625 -25.867188 -1.9375 -23.359375 C -2.25 -20.847656 -1.625 -18.8125 -0.0625 -17.25 C 0.875 -16.3125 1.820312 -15.671875 2.78125 -15.328125 C 3.75 -14.992188 4.664062 -14.90625 5.53125 -15.0625 C 6.40625 -15.226562 7.269531 -15.578125 8.125 -16.109375 C 8.976562 -16.640625 9.785156 -17.285156 10.546875 -18.046875 C 12.023438 -19.523438 13.175781 -21.375 14 -23.59375 C 14.820312 -25.8125 15.054688 -28.265625 14.703125 -30.953125 Z M 8.265625 -37.390625 "/></g></g></g></g></g><g clip-path="url(#97bcb614ce)"><g clip-path="url(#992c2bd057)"><g fill="#ffffff" fill-opacity="1"><g transform="translate(227.827025, 320.614074)"><g><path d="M 15.578125 -23.484375 C 17.015625 -24.921875 18.109375 -26.332031 18.859375 -27.71875 C 19.617188 -29.113281 20.269531 -30.570312 20.8125 -32.09375 L 26.515625 -28.921875 C 25.304688 -25.296875 23.023438 -21.804688 19.671875 -18.453125 C 17.390625 -16.171875 14.914062 -14.375 12.25 -13.0625 C 9.582031 -11.75 6.816406 -11.019531 3.953125 -10.875 C 1.097656 -10.738281 -1.769531 -11.265625 -4.65625 -12.453125 C -7.539062 -13.640625 -10.347656 -15.597656 -13.078125 -18.328125 C -15.585938 -20.835938 -17.445312 -23.5 -18.65625 -26.3125 C -19.875 -29.132812 -20.46875 -31.960938 -20.4375 -34.796875 C -20.414062 -37.640625 -19.773438 -40.445312 -18.515625 -43.21875 C -17.265625 -46 -15.429688 -48.597656 -13.015625 -51.015625 C -11.628906 -52.398438 -10.175781 -53.648438 -8.65625 -54.765625 C -7.144531 -55.890625 -5.148438 -56.921875 -2.671875 -57.859375 L 0.46875 -52.03125 C -2.75 -51.125 -5.546875 -49.484375 -7.921875 -47.109375 C -11.179688 -43.847656 -12.800781 -40.191406 -12.78125 -36.140625 C -12.757812 -32.085938 -10.914062 -28.226562 -7.25 -24.5625 C -4.96875 -22.28125 -2.75 -20.691406 -0.59375 -19.796875 C 1.550781 -18.910156 3.59375 -18.519531 5.53125 -18.625 C 7.476562 -18.738281 9.300781 -19.238281 11 -20.125 C 12.707031 -21.019531 14.234375 -22.140625 15.578125 -23.484375 Z M 15.578125 -23.484375 "/></g></g></g></g></g><g clip-path="url(#d96aa1be7c)"><g clip-path="url(#b68bc1d1a5)"><g fill="#ffffff" fill-opacity="1"><g transform="translate(257.495533, 290.945566)"><g><path d="M 16.3125 -46.53125 L -6.3125 -23.90625 L -6.046875 -23.640625 C -2.546875 -20.140625 1.09375 -18.398438 4.875 -18.421875 C 8.65625 -18.441406 12.179688 -20.085938 15.453125 -23.359375 C 17.148438 -25.054688 18.519531 -26.695312 19.5625 -28.28125 C 20.613281 -29.875 21.613281 -31.769531 22.5625 -33.96875 L 28.125 -30.8125 C 27.40625 -28.925781 26.34375 -26.921875 24.9375 -24.796875 C 23.53125 -22.671875 21.820312 -20.601562 19.8125 -18.59375 C 17.53125 -16.3125 15.078125 -14.484375 12.453125 -13.109375 C 9.835938 -11.742188 7.109375 -10.960938 4.265625 -10.765625 C 1.421875 -10.566406 -1.460938 -11.0625 -4.390625 -12.25 C -7.316406 -13.4375 -10.210938 -15.460938 -13.078125 -18.328125 C -15.546875 -20.796875 -17.414062 -23.398438 -18.6875 -26.140625 C -19.96875 -28.890625 -20.640625 -31.640625 -20.703125 -34.390625 C -20.773438 -37.148438 -20.25 -39.867188 -19.125 -42.546875 C -18.007812 -45.234375 -16.265625 -47.765625 -13.890625 -50.140625 C -11.878906 -52.148438 -9.71875 -53.632812 -7.40625 -54.59375 C -5.101562 -55.5625 -2.769531 -56.023438 -0.40625 -55.984375 C 1.957031 -55.941406 4.304688 -55.382812 6.640625 -54.3125 C 8.972656 -53.238281 11.164062 -51.675781 13.21875 -49.625 Z M 5.984375 -44.640625 C 4.816406 -45.804688 3.582031 -46.742188 2.28125 -47.453125 C 0.988281 -48.171875 -0.335938 -48.609375 -1.703125 -48.765625 C -3.078125 -48.929688 -4.457031 -48.765625 -5.84375 -48.265625 C -7.226562 -47.765625 -8.59375 -46.84375 -9.9375 -45.5 C -12.394531 -43.039062 -13.613281 -40.257812 -13.59375 -37.15625 C -13.570312 -34.050781 -12.46875 -31.039062 -10.28125 -28.125 Z M 5.984375 -44.640625 "/></g></g></g></g></g><g clip-path="url(#3ed79b0253)"><g clip-path="url(#323730272a)"><g fill="#ffffff" fill-opacity="1"><g transform="translate(291.325688, 257.115411)"><g/></g></g></g></g><g clip-path="url(#c2ee2a3259)"><g clip-path="url(#fbd86dcc00)"><g fill="#ffffff" fill-opacity="1"><g transform="translate(306.227069, 242.21403)"><g><path d="M -30.8125 -32.28125 L -24.5 -38.59375 L 0.75 -24.09375 L 9 -18.25 L 9.28125 -18.53125 L 3.703125 -27.046875 L -10.734375 -52.359375 L -4.359375 -58.734375 L 21.09375 -44.4375 L 29.546875 -38.796875 L 29.8125 -39.0625 L 24.25 -47.59375 L 9.609375 -72.703125 L 15.640625 -78.734375 L 37.59375 -37.59375 L 30.875 -30.875 L 6.1875 -44.84375 L -3.15625 -51.09375 L 3.015625 -41.671875 L 16.84375 -16.84375 L 10.46875 -10.46875 Z M -30.8125 -32.28125 "/></g></g></g></g></g><g clip-path="url(#6ef990ac7b)"><g clip-path="url(#66735006a4)"><g fill="#ffffff" fill-opacity="1"><g transform="translate(354.018859, 194.42224)"><g><path d="M 5.5 -5.5 L -26.046875 -37.046875 L -20.140625 -42.953125 L 11.40625 -11.40625 Z M -31.203125 -48.140625 C -32.234375 -47.109375 -33.460938 -46.566406 -34.890625 -46.515625 C -36.328125 -46.472656 -37.5625 -46.96875 -38.59375 -48 C -39.625 -49.03125 -40.125 -50.269531 -40.09375 -51.71875 C -40.070312 -53.175781 -39.546875 -54.421875 -38.515625 -55.453125 C -37.535156 -56.429688 -36.304688 -56.941406 -34.828125 -56.984375 C -33.359375 -57.035156 -32.109375 -56.546875 -31.078125 -55.515625 C -30.046875 -54.484375 -29.5625 -53.238281 -29.625 -51.78125 C -29.695312 -50.332031 -30.222656 -49.117188 -31.203125 -48.140625 Z M -31.203125 -48.140625 "/></g></g></g></g></g><g clip-path="url(#159d3bf69d)"><g clip-path="url(#c4dbd0fe03)"><g fill="#ffffff" fill-opacity="1"><g transform="translate(370.531207, 177.909892)"><g><path d="M 10.46875 -10.46875 L 4.5625 -4.5625 L -26.984375 -36.109375 L -22.359375 -40.734375 L -17.125 -37.25 C -17.113281 -40.382812 -16.660156 -43.226562 -15.765625 -45.78125 C -14.867188 -48.332031 -13.300781 -50.726562 -11.0625 -52.96875 C -7.84375 -56.1875 -4.410156 -57.804688 -0.765625 -57.828125 C 2.878906 -57.847656 6.3125 -56.25 9.53125 -53.03125 L 31.28125 -31.28125 L 25.375 -25.375 L 4.5 -46.25 C 2.570312 -48.175781 0.535156 -49.203125 -1.609375 -49.328125 C -3.765625 -49.460938 -5.867188 -48.503906 -7.921875 -46.453125 C -11.054688 -43.316406 -12.578125 -38.972656 -12.484375 -33.421875 Z M 10.46875 -10.46875 "/></g></g></g></g></g><g clip-path="url(#a86ffd39f8)"><g clip-path="url(#ede7702637)"><g fill="#ffffff" fill-opacity="1"><g transform="translate(406.375058, 142.066041)"><g><path d="M 10.46875 -10.46875 L 4.5625 -4.5625 L -26.984375 -36.109375 L -22.359375 -40.734375 L -17.125 -37.25 C -17.113281 -40.382812 -16.660156 -43.226562 -15.765625 -45.78125 C -14.867188 -48.332031 -13.300781 -50.726562 -11.0625 -52.96875 C -7.84375 -56.1875 -4.410156 -57.804688 -0.765625 -57.828125 C 2.878906 -57.847656 6.3125 -56.25 9.53125 -53.03125 L 31.28125 -31.28125 L 25.375 -25.375 L 4.5 -46.25 C 2.570312 -48.175781 0.535156 -49.203125 -1.609375 -49.328125 C -3.765625 -49.460938 -5.867188 -48.503906 -7.921875 -46.453125 C -11.054688 -43.316406 -12.578125 -38.972656 -12.484375 -33.421875 Z M 10.46875 -10.46875 "/></g></g></g></g></g><g clip-path="url(#3fe9b7d112)"><g clip-path="url(#6c05a6cf1d)"><g fill="#ffffff" fill-opacity="1"><g transform="translate(442.218908, 106.222191)"><g><path d="M 16.3125 -46.53125 L -6.3125 -23.90625 L -6.046875 -23.640625 C -2.546875 -20.140625 1.09375 -18.398438 4.875 -18.421875 C 8.65625 -18.441406 12.179688 -20.085938 15.453125 -23.359375 C 17.148438 -25.054688 18.519531 -26.695312 19.5625 -28.28125 C 20.613281 -29.875 21.613281 -31.769531 22.5625 -33.96875 L 28.125 -30.8125 C 27.40625 -28.925781 26.34375 -26.921875 24.9375 -24.796875 C 23.53125 -22.671875 21.820312 -20.601562 19.8125 -18.59375 C 17.53125 -16.3125 15.078125 -14.484375 12.453125 -13.109375 C 9.835938 -11.742188 7.109375 -10.960938 4.265625 -10.765625 C 1.421875 -10.566406 -1.460938 -11.0625 -4.390625 -12.25 C -7.316406 -13.4375 -10.210938 -15.460938 -13.078125 -18.328125 C -15.546875 -20.796875 -17.414062 -23.398438 -18.6875 -26.140625 C -19.96875 -28.890625 -20.640625 -31.640625 -20.703125 -34.390625 C -20.773438 -37.148438 -20.25 -39.867188 -19.125 -42.546875 C -18.007812 -45.234375 -16.265625 -47.765625 -13.890625 -50.140625 C -11.878906 -52.148438 -9.71875 -53.632812 -7.40625 -54.59375 C -5.101562 -55.5625 -2.769531 -56.023438 -0.40625 -55.984375 C 1.957031 -55.941406 4.304688 -55.382812 6.640625 -54.3125 C 8.972656 -53.238281 11.164062 -51.675781 13.21875 -49.625 Z M 5.984375 -44.640625 C 4.816406 -45.804688 3.582031 -46.742188 2.28125 -47.453125 C 0.988281 -48.171875 -0.335938 -48.609375 -1.703125 -48.765625 C -3.078125 -48.929688 -4.457031 -48.765625 -5.84375 -48.265625 C -7.226562 -47.765625 -8.59375 -46.84375 -9.9375 -45.5 C -12.394531 -43.039062 -13.613281 -40.257812 -13.59375 -37.15625 C -13.570312 -34.050781 -12.46875 -31.039062 -10.28125 -28.125 Z M 5.984375 -44.640625 "/></g></g></g></g></g><g clip-path="url(#ae17ba28e2)"><g clip-path="url(#d5c4d0f812)"><g fill="#ffffff" fill-opacity="1"><g transform="translate(476.049063, 72.392036)"><g><path d="M 4.4375 -4.4375 L -27.109375 -35.984375 L -22.6875 -40.40625 L -15.390625 -35.109375 C -16.640625 -37.878906 -17.015625 -40.757812 -16.515625 -43.75 C -16.023438 -46.75 -14.632812 -49.394531 -12.34375 -51.6875 C -11.1875 -52.84375 -10.132812 -53.710938 -9.1875 -54.296875 C -8.25 -54.890625 -7.332031 -55.363281 -6.4375 -55.71875 L -2.40625 -49.40625 C -3.21875 -49.132812 -4.035156 -48.757812 -4.859375 -48.28125 C -5.691406 -47.8125 -6.550781 -47.132812 -7.4375 -46.25 C -8.738281 -44.945312 -9.71875 -43.523438 -10.375 -41.984375 C -11.03125 -40.441406 -11.320312 -38.804688 -11.25 -37.078125 C -11.1875 -35.359375 -10.722656 -33.601562 -9.859375 -31.8125 C -9.003906 -30.03125 -7.726562 -28.289062 -6.03125 -26.59375 L 10.28125 -10.28125 Z M 4.4375 -4.4375 "/></g></g></g></g></g></svg>